<svg width="42" height="42" viewBox="0 0 42 42" fill="none" xmlns="http://www.w3.org/2000/svg">
<g clip-path="url(#clip0)">
<path d="M17.5596 0.0718994L13.7947 0.0732434C10.3641 0.0732434 7.57264 2.8644 7.57264 6.29529C7.57264 6.73915 7.62371 7.19006 7.72451 7.63997C4.33293 8.70878 1.99101 11.8803 1.99101 15.4627C1.99101 16.801 2.3223 18.1188 2.94357 19.2945C1.5663 20.6593 0.711517 22.551 0.711517 24.6389C0.711517 28.0466 2.98758 30.9312 6.09928 31.8558C5.98974 32.2815 5.93195 32.719 5.93195 33.1625C5.93195 36.0528 8.28328 38.4038 11.1732 38.4038C11.5015 38.4038 11.8324 38.3709 12.1631 38.3067C12.286 40.364 13.998 42 16.0859 42C18.241 42 20.0157 40.2568 20.0157 38.1071C20.0157 38.1034 20.0157 38.0997 20.0157 38.0964V2.52806C20.0154 1.17364 18.9143 0.0718994 17.5596 0.0718994Z" fill="url(#paint0_linear)"/>
<path d="M41.2885 24.567C41.2885 22.4794 40.4341 20.5877 39.0561 19.2222C39.6781 18.0472 40.0097 16.7291 40.0097 15.3912C40.0097 11.8087 37.6671 8.63688 34.2755 7.5684C34.3767 7.1185 34.4274 6.66725 34.4274 6.22373C34.4274 2.79283 31.6359 0.001344 28.2047 0.001344L24.4398 0C23.0854 0 21.984 1.10174 21.984 2.45683V31.0175C21.984 31.0491 21.9638 31.0807 21.9638 31.1156C21.9638 31.243 21.984 31.3683 21.984 31.4916V37.9976V38.0244V38.0624H21.9853C22.0293 40.3593 23.7732 41.92 25.9131 41.92C28.0011 41.92 29.714 40.2877 29.837 38.2308C30.1672 38.2953 30.4989 38.3302 30.8265 38.3302C33.7167 38.3302 36.0677 35.9799 36.0677 33.0903C36.0677 32.6464 36.01 32.2093 35.9011 31.7843C39.0124 30.8592 41.2885 27.9747 41.2885 24.567Z" fill="url(#paint1_linear)"/>
</g>
<defs>
<linearGradient id="paint0_linear" x1="10.3636" y1="0.0718994" x2="10.3636" y2="42" gradientUnits="userSpaceOnUse">
<stop stop-color="#31FF6B"/>
<stop offset="1" stop-color="#15C4FC"/>
</linearGradient>
<linearGradient id="paint1_linear" x1="31.6262" y1="0" x2="31.6262" y2="41.92" gradientUnits="userSpaceOnUse">
<stop stop-color="#31FF6B"/>
<stop offset="1" stop-color="#15C4FC"/>
</linearGradient>
<clipPath id="clip0">
<rect width="42" height="42" fill="white"/>
</clipPath>
</defs>
</svg>
